<?xml version="1.0" encoding="UTF-8" standalone="no"?><svg xmlns="http://www.w3.org/2000/svg" xmlns:xlink="http://www.w3.org/1999/xlink" contentScriptType="application/ecmascript" contentStyleType="text/css" height="2111.25px" preserveAspectRatio="none" style="width:1950px;height:2111px;" version="1.1" viewBox="0 0 1950 2111" width="1950px" zoomAndPan="magnify"><defs/><g><rect fill="#90EE90" height="86.6895" style="stroke:#A80036;stroke-width:1.25;" width="12.5" x="51.875" y="152.8906"/><rect fill="#90EE90" height="86.6895" style="stroke:#A80036;stroke-width:1.25;" width="12.5" x="51.875" y="594.2285"/><rect fill="#90EE90" height="84.5117" style="stroke:#A80036;stroke-width:1.25;" width="12.5" x="51.875" y="793.0469"/><rect fill="#90EE90" height="180.3906" style="stroke:#A80036;stroke-width:1.25;" width="12.5" x="51.875" y="987.5098"/><rect fill="#E9967A" height="792.2852" style="stroke:#A80036;stroke-width:1.25;" width="12.5" x="51.875" y="1280.0293"/><rect fill="#F08080" height="15" style="stroke:#A80036;stroke-width:1.25;" width="12.5" x="334.375" y="197.0801"/><rect fill="#F08080" height="241.2695" style="stroke:#A80036;stroke-width:1.25;" width="12.5" x="334.375" y="296.2695"/><rect fill="#FFFFFF" height="60.8789" style="stroke:#A80036;stroke-width:1.25;" width="12.5" x="340.625" y="434.1602"/><rect fill="#F08080" height="15" style="stroke:#A80036;stroke-width:1.25;" width="12.5" x="334.375" y="638.418"/><rect fill="#ADD8E6" height="108.7012" style="stroke:#A80036;stroke-width:1.25;" width="12.5" x="644.375" y="1031.6992"/><rect fill="#E9967A" height="741.0352" style="stroke:#A80036;stroke-width:1.25;" width="12.5" x="954.375" y="1303.7793"/><rect fill="#FFBBBB" height="31.25" style="stroke:#A80036;stroke-width:1.25;" width="12.5" x="960.625" y="1938.5645"/><rect fill="#E9967A" height="514.7656" style="stroke:#A80036;stroke-width:1.25;" width="12.5" x="1443.75" y="1506.2988"/><rect fill="#FFBBBB" height="194.6289" style="stroke:#A80036;stroke-width:1.25;" width="12.5" x="1450" y="1687.2461"/><rect fill="#FFBBBB" height="40" style="stroke:#A80036;stroke-width:1.25;" width="12.5" x="1456.25" y="1773.125"/><rect fill="#FFFFFF" height="192.5195" rx="12.5" ry="12.5" style="stroke:#000000;stroke-width:2.5;" width="361.875" x="269.375" y="321.2695"/><rect fill="#FFFFFF" height="152.0801" rx="12.5" ry="12.5" style="stroke:#000000;stroke-width:2.5;" width="336.875" x="281.875" y="352.959"/><rect fill="#FFFFFF" height="76.2012" rx="12.5" ry="12.5" style="stroke:#000000;stroke-width:2.5;" width="400.625" x="606.25" y="1050.4492"/><rect fill="#FFFFFF" height="674.7852" rx="12.5" ry="12.5" style="stroke:#000000;stroke-width:2.5;" width="1027.5" x="901.875" y="1322.5293"/><rect fill="#FFFFFF" height="634.3457" rx="12.5" ry="12.5" style="stroke:#000000;stroke-width:2.5;" width="1002.5" x="914.375" y="1354.2188"/><rect fill="#FFFFFF" height="326.8262" rx="12.5" ry="12.5" style="stroke:#000000;stroke-width:2.5;" width="551.25" x="1353.125" y="1531.2988"/><rect fill="#FFFFFF" height="286.3867" rx="12.5" ry="12.5" style="stroke:#000000;stroke-width:2.5;" width="526.25" x="1365.625" y="1562.9883"/><rect fill="#FFFFFF" height="245.9473" rx="12.5" ry="12.5" style="stroke:#000000;stroke-width:2.5;" width="501.25" x="1378.125" y="1594.6777"/><rect fill="#FFFFFF" height="205.5078" rx="12.5" ry="12.5" style="stroke:#000000;stroke-width:2.5;" width="476.25" x="1390.625" y="1626.3672"/><rect fill="#FFFFFF" height="77.1289" rx="12.5" ry="12.5" style="stroke:#000000;stroke-width:2.5;" width="451.25" x="1403.125" y="1712.2461"/><line style="stroke:#A80036;stroke-width:1.25;stroke-dasharray:5.0,5.0;" x1="57.5" x2="57.5" y1="47.0117" y2="2103.5645"/><line style="stroke:#A80036;stroke-width:1.25;stroke-dasharray:5.0,5.0;" x1="340.625" x2="340.625" y1="47.0117" y2="2103.5645"/><line style="stroke:#A80036;stroke-width:1.25;stroke-dasharray:5.0,5.0;" x1="571.25" x2="571.25" y1="415.0293" y2="2103.5645"/><line style="stroke:#A80036;stroke-width:1.25;stroke-dasharray:5.0,5.0;" x1="650" x2="650" y1="848.4277" y2="2103.5645"/><line style="stroke:#A80036;stroke-width:1.25;stroke-dasharray:5.0,5.0;" x1="875.625" x2="875.625" y1="935.4395" y2="2103.5645"/><line style="stroke:#A80036;stroke-width:1.25;stroke-dasharray:5.0,5.0;" x1="960.625" x2="960.625" y1="1112.5195" y2="2103.5645"/><line style="stroke:#A80036;stroke-width:1.25;stroke-dasharray:5.0,5.0;" x1="1198.75" x2="1198.75" y1="47.0117" y2="2103.5645"/><line style="stroke:#A80036;stroke-width:1.25;stroke-dasharray:5.0,5.0;" x1="1449.375" x2="1449.375" y1="1454.2285" y2="2103.5645"/><rect fill="#90EE90" height="39.5117" rx="12.5" ry="12.5" style="stroke:#A80036;stroke-width:1.875;" width="103.75" x="6.25" y="6.25"/><text fill="#000000" font-family="sans-serif" font-size="17.5" lengthAdjust="spacing" textLength="86.25" x="15" y="33.1665">AntFacade</text><rect fill="#F08080" height="39.5117" rx="12.5" ry="12.5" style="stroke:#A80036;stroke-width:1.875;" width="92.5" x="294.375" y="6.25"/><text fill="#000000" font-family="sans-serif" font-size="17.5" lengthAdjust="spacing" textLength="75" x="303.125" y="33.1665">Graphe:g</text><rect fill="#F5DEB3" height="39.5117" rx="12.5" ry="12.5" style="stroke:#A80036;stroke-width:1.875;" width="123.75" x="1137.5" y="6.25"/><text fill="#000000" font-family="sans-serif" font-size="17.5" lengthAdjust="spacing" textLength="106.25" x="1146.25" y="33.1665">FourmisMove</text><rect fill="#90EE90" height="86.6895" style="stroke:#A80036;stroke-width:1.25;" width="12.5" x="51.875" y="152.8906"/><rect fill="#90EE90" height="86.6895" style="stroke:#A80036;stroke-width:1.25;" width="12.5" x="51.875" y="594.2285"/><rect fill="#90EE90" height="84.5117" style="stroke:#A80036;stroke-width:1.25;" width="12.5" x="51.875" y="793.0469"/><rect fill="#90EE90" height="180.3906" style="stroke:#A80036;stroke-width:1.25;" width="12.5" x="51.875" y="987.5098"/><rect fill="#E9967A" height="792.2852" style="stroke:#A80036;stroke-width:1.25;" width="12.5" x="51.875" y="1280.0293"/><rect fill="#F08080" height="15" style="stroke:#A80036;stroke-width:1.25;" width="12.5" x="334.375" y="197.0801"/><rect fill="#F08080" height="241.2695" style="stroke:#A80036;stroke-width:1.25;" width="12.5" x="334.375" y="296.2695"/><rect fill="#FFFFFF" height="60.8789" style="stroke:#A80036;stroke-width:1.25;" width="12.5" x="340.625" y="434.1602"/><rect fill="#F08080" height="15" style="stroke:#A80036;stroke-width:1.25;" width="12.5" x="334.375" y="638.418"/><rect fill="#ADD8E6" height="108.7012" style="stroke:#A80036;stroke-width:1.25;" width="12.5" x="644.375" y="1031.6992"/><rect fill="#E9967A" height="741.0352" style="stroke:#A80036;stroke-width:1.25;" width="12.5" x="954.375" y="1303.7793"/><rect fill="#FFBBBB" height="31.25" style="stroke:#A80036;stroke-width:1.25;" width="12.5" x="960.625" y="1938.5645"/><rect fill="#E9967A" height="514.7656" style="stroke:#A80036;stroke-width:1.25;" width="12.5" x="1443.75" y="1506.2988"/><rect fill="#FFBBBB" height="194.6289" style="stroke:#A80036;stroke-width:1.25;" width="12.5" x="1450" y="1687.2461"/><rect fill="#FFBBBB" height="40" style="stroke:#A80036;stroke-width:1.25;" width="12.5" x="1456.25" y="1773.125"/><rect fill="#EEEEEE" height="3.75" style="stroke:#EEEEEE;stroke-width:1.25;" width="1941.875" x="0" y="85.9814"/><line style="stroke:#000000;stroke-width:1.25;" x1="0" x2="1941.875" y1="85.9814" y2="85.9814"/><line style="stroke:#000000;stroke-width:1.25;" x1="0" x2="1941.875" y1="89.7314" y2="89.7314"/><rect fill="#EEEEEE" height="30.4395" style="stroke:#000000;stroke-width:2.5;" width="221.25" x="860.3125" y="72.0117"/><text fill="#000000" font-family="sans-serif" font-size="16.25" font-weight="bold" lengthAdjust="spacing" textLength="198.75" x="867.8125" y="93.8806">Mise en place du Graphe</text><line style="stroke:#000000;stroke-width:1.25;" x1="58.125" x2="116.875" y1="136.6406" y2="136.6406"/><line style="stroke:#000000;stroke-width:1.25;" x1="116.875" x2="116.875" y1="136.6406" y2="152.8906"/><line style="stroke:#000000;stroke-width:1.25;" x1="65.625" x2="116.875" y1="152.8906" y2="152.8906"/><polygon fill="#000000" points="78.125,147.8906,65.625,152.8906,78.125,157.8906" style="stroke:#000000;stroke-width:1.25;"/><text fill="#000000" font-family="sans-serif" font-size="16.25" lengthAdjust="spacing" textLength="176.25" x="73.125" y="130.5701">createGrid(width, height)</text><polygon fill="#000000" points="319.375,192.0801,331.875,197.0801,319.375,202.0801" style="stroke:#000000;stroke-width:1.25;"/><line style="stroke:#000000;stroke-width:1.25;stroke-dasharray:2.0,2.0;" x1="64.375" x2="326.875" y1="197.0801" y2="197.0801"/><text fill="#000000" font-family="sans-serif" font-size="16.25" lengthAdjust="spacing" textLength="246.25" x="73.125" y="191.0095">&lt;&lt;Create&gt;&gt; Graphe(width, height)</text><polygon fill="#000000" points="78.125,207.0801,65.625,212.0801,78.125,217.0801" style="stroke:#000000;stroke-width:1.25;"/><line style="stroke:#000000;stroke-width:1.25;stroke-dasharray:2.0,2.0;" x1="70.625" x2="339.375" y1="212.0801" y2="212.0801"/><line style="stroke:#000000;stroke-width:1.25;stroke-dasharray:2.0,2.0;" x1="64.375" x2="116.875" y1="238.3301" y2="238.3301"/><line style="stroke:#000000;stroke-width:1.25;stroke-dasharray:2.0,2.0;" x1="116.875" x2="116.875" y1="238.3301" y2="254.5801"/><line style="stroke:#000000;stroke-width:1.25;stroke-dasharray:2.0,2.0;" x1="58.125" x2="116.875" y1="254.5801" y2="254.5801"/><polygon fill="#000000" points="70.625,249.5801,58.125,254.5801,70.625,259.5801" style="stroke:#000000;stroke-width:1.25;"/><line style="stroke:#000000;stroke-width:1.25;" x1="340.625" x2="399.375" y1="280.0195" y2="280.0195"/><line style="stroke:#000000;stroke-width:1.25;" x1="399.375" x2="399.375" y1="280.0195" y2="296.2695"/><line style="stroke:#000000;stroke-width:1.25;" x1="348.125" x2="399.375" y1="296.2695" y2="296.2695"/><polygon fill="#000000" points="360.625,291.2695,348.125,296.2695,360.625,301.2695" style="stroke:#000000;stroke-width:1.25;"/><text fill="#000000" font-family="sans-serif" font-size="16.25" lengthAdjust="spacing" textLength="213.75" x="355.625" y="273.949">creationEmplacementNoeud()</text><path d="M281.875,321.2695 L360.625,321.2695 L360.625,331.2695 L348.125,343.7695 L269.375,343.7695 L269.375,333.7695 " fill="#EEEEEE" style="stroke:#000000;stroke-width:1.25;"/><rect fill="none" height="192.5195" rx="12.5" ry="12.5" style="stroke:#000000;stroke-width:2.5;" width="361.875" x="269.375" y="321.2695"/><text fill="#000000" font-family="sans-serif" font-size="16.25" font-weight="bold" lengthAdjust="spacing" textLength="35" x="288.125" y="339.3884">loop</text><text fill="#000000" font-family="sans-serif" font-size="13.75" font-weight="bold" lengthAdjust="spacing" textLength="101.25" x="379.375" y="338.0432">[i&lt;taille.length]</text><path d="M294.375,352.959 L373.125,352.959 L373.125,362.959 L360.625,375.459 L281.875,375.459 L281.875,365.459 " fill="#EEEEEE" style="stroke:#000000;stroke-width:1.25;"/><rect fill="none" height="152.0801" rx="12.5" ry="12.5" style="stroke:#000000;stroke-width:2.5;" width="336.875" x="281.875" y="352.959"/><text fill="#000000" font-family="sans-serif" font-size="16.25" font-weight="bold" lengthAdjust="spacing" textLength="35" x="300.625" y="371.0779">loop</text><text fill="#000000" font-family="sans-serif" font-size="13.75" font-weight="bold" lengthAdjust="spacing" textLength="115" x="391.875" y="369.7327">[i&lt;taille[i].length]</text><polygon fill="#000000" points="522.5,398.8379,535,403.8379,522.5,408.8379" style="stroke:#000000;stroke-width:1.25;"/><line style="stroke:#000000;stroke-width:1.25;stroke-dasharray:2.0,2.0;" x1="346.875" x2="530" y1="403.8379" y2="403.8379"/><text fill="#000000" font-family="sans-serif" font-size="16.25" lengthAdjust="spacing" textLength="157.5" x="355.625" y="397.7673">&lt;&lt;Create&gt;&gt; Noeud(g)</text><rect fill="#FEFECE" height="39.5117" rx="12.5" ry="12.5" style="stroke:#A80036;stroke-width:1.875;" width="68.75" x="537.5" y="375.8984"/><text fill="#000000" font-family="sans-serif" font-size="17.5" lengthAdjust="spacing" textLength="51.25" x="546.25" y="402.8149">Noeud</text><polygon fill="#000000" points="366.875,429.1602,354.375,434.1602,366.875,439.1602" style="stroke:#000000;stroke-width:1.25;"/><line style="stroke:#000000;stroke-width:1.25;" x1="359.375" x2="570.625" y1="434.1602" y2="434.1602"/><text fill="#000000" font-family="sans-serif" font-size="16.25" lengthAdjust="spacing" textLength="187.5" x="374.375" y="452.2791">getEmplacementNoeud(n)</text><polygon fill="#000000" points="556.875,490.0391,569.375,495.0391,556.875,500.0391" style="stroke:#000000;stroke-width:1.25;"/><line style="stroke:#000000;stroke-width:1.25;stroke-dasharray:2.0,2.0;" x1="346.875" x2="564.375" y1="495.0391" y2="495.0391"/><text fill="#000000" font-family="sans-serif" font-size="16.25" lengthAdjust="spacing" textLength="43.75" x="355.625" y="488.9685">noeud</text><line style="stroke:#000000;stroke-width:1.25;stroke-dasharray:2.0,2.0;" x1="346.875" x2="399.375" y1="536.2891" y2="536.2891"/><line style="stroke:#000000;stroke-width:1.25;stroke-dasharray:2.0,2.0;" x1="399.375" x2="399.375" y1="536.2891" y2="552.5391"/><line style="stroke:#000000;stroke-width:1.25;stroke-dasharray:2.0,2.0;" x1="340.625" x2="399.375" y1="552.5391" y2="552.5391"/><polygon fill="#000000" points="353.125,547.5391,340.625,552.5391,353.125,557.5391" style="stroke:#000000;stroke-width:1.25;"/><line style="stroke:#000000;stroke-width:1.25;" x1="58.125" x2="116.875" y1="577.9785" y2="577.9785"/><line style="stroke:#000000;stroke-width:1.25;" x1="116.875" x2="116.875" y1="577.9785" y2="594.2285"/><line style="stroke:#000000;stroke-width:1.25;" x1="65.625" x2="116.875" y1="594.2285" y2="594.2285"/><polygon fill="#000000" points="78.125,589.2285,65.625,594.2285,78.125,599.2285" style="stroke:#000000;stroke-width:1.25;"/><text fill="#000000" font-family="sans-serif" font-size="16.25" lengthAdjust="spacing" textLength="120" x="73.125" y="571.908">putObstacle(x,y)</text><polygon fill="#000000" points="319.375,633.418,331.875,638.418,319.375,643.418" style="stroke:#000000;stroke-width:1.25;"/><line style="stroke:#000000;stroke-width:1.25;" x1="64.375" x2="326.875" y1="638.418" y2="638.418"/><text fill="#000000" font-family="sans-serif" font-size="16.25" lengthAdjust="spacing" textLength="143.75" x="73.125" y="632.3474">mettreObstacle(x,y)</text><polygon fill="#000000" points="78.125,648.418,65.625,653.418,78.125,658.418" style="stroke:#000000;stroke-width:1.25;"/><line style="stroke:#000000;stroke-width:1.25;stroke-dasharray:2.0,2.0;" x1="70.625" x2="339.375" y1="653.418" y2="653.418"/><line style="stroke:#000000;stroke-width:1.25;stroke-dasharray:2.0,2.0;" x1="64.375" x2="116.875" y1="679.668" y2="679.668"/><line style="stroke:#000000;stroke-width:1.25;stroke-dasharray:2.0,2.0;" x1="116.875" x2="116.875" y1="679.668" y2="695.918"/><line style="stroke:#000000;stroke-width:1.25;stroke-dasharray:2.0,2.0;" x1="58.125" x2="116.875" y1="695.918" y2="695.918"/><polygon fill="#000000" points="70.625,690.918,58.125,695.918,70.625,700.918" style="stroke:#000000;stroke-width:1.25;"/><rect fill="#EEEEEE" height="3.75" style="stroke:#EEEEEE;stroke-width:1.25;" width="1941.875" x="0" y="726.1377"/><line style="stroke:#000000;stroke-width:1.25;" x1="0" x2="1941.875" y1="726.1377" y2="726.1377"/><line style="stroke:#000000;stroke-width:1.25;" x1="0" x2="1941.875" y1="729.8877" y2="729.8877"/><rect fill="#EEEEEE" height="30.4395" style="stroke:#000000;stroke-width:2.5;" width="191.25" x="875.3125" y="712.168"/><text fill="#000000" font-family="sans-serif" font-size="16.25" font-weight="bold" lengthAdjust="spacing" textLength="168.75" x="882.8125" y="734.0369">Création des Fourmis</text><line style="stroke:#000000;stroke-width:1.25;" x1="58.125" x2="116.875" y1="776.7969" y2="776.7969"/><line style="stroke:#000000;stroke-width:1.25;" x1="116.875" x2="116.875" y1="776.7969" y2="793.0469"/><line style="stroke:#000000;stroke-width:1.25;" x1="65.625" x2="116.875" y1="793.0469" y2="793.0469"/><polygon fill="#000000" points="78.125,788.0469,65.625,793.0469,78.125,798.0469" style="stroke:#000000;stroke-width:1.25;"/><text fill="#000000" font-family="sans-serif" font-size="16.25" lengthAdjust="spacing" textLength="132.5" x="73.125" y="770.7263">createColony(x, y)</text><polygon fill="#000000" points="603.75,832.2363,616.25,837.2363,603.75,842.2363" style="stroke:#000000;stroke-width:1.25;"/><line style="stroke:#000000;stroke-width:1.25;stroke-dasharray:2.0,2.0;" x1="64.375" x2="611.25" y1="837.2363" y2="837.2363"/><text fill="#000000" font-family="sans-serif" font-size="16.25" lengthAdjust="spacing" textLength="180" x="73.125" y="831.1658">&lt;&lt;Create&gt;&gt; Reine(x,y,g)</text><rect fill="#FEFECE" height="39.5117" rx="12.5" ry="12.5" style="stroke:#A80036;stroke-width:1.875;" width="63.75" x="618.75" y="809.2969"/><text fill="#000000" font-family="sans-serif" font-size="17.5" lengthAdjust="spacing" textLength="46.25" x="627.5" y="836.2134">Reine</text><line style="stroke:#000000;stroke-width:1.25;stroke-dasharray:2.0,2.0;" x1="64.375" x2="116.875" y1="876.3086" y2="876.3086"/><line style="stroke:#000000;stroke-width:1.25;stroke-dasharray:2.0,2.0;" x1="116.875" x2="116.875" y1="876.3086" y2="892.5586"/><line style="stroke:#000000;stroke-width:1.25;stroke-dasharray:2.0,2.0;" x1="58.125" x2="116.875" y1="892.5586" y2="892.5586"/><polygon fill="#000000" points="70.625,887.5586,58.125,892.5586,70.625,897.5586" style="stroke:#000000;stroke-width:1.25;"/><polygon fill="#000000" points="821.875,919.248,834.375,924.248,821.875,929.248" style="stroke:#000000;stroke-width:1.25;"/><line style="stroke:#000000;stroke-width:1.25;stroke-dasharray:2.0,2.0;" x1="650.625" x2="829.375" y1="924.248" y2="924.248"/><text fill="#000000" font-family="sans-serif" font-size="16.25" lengthAdjust="spacing" textLength="156.25" x="659.375" y="918.1775">&lt;&lt;Create&gt;&gt; Colonie()</text><rect fill="#FEFECE" height="39.5117" rx="12.5" ry="12.5" style="stroke:#A80036;stroke-width:1.875;" width="77.5" x="836.875" y="896.3086"/><text fill="#000000" font-family="sans-serif" font-size="17.5" lengthAdjust="spacing" textLength="60" x="845.625" y="923.2251">Colonie</text><line style="stroke:#000000;stroke-width:1.25;" x1="58.125" x2="116.875" y1="971.2598" y2="971.2598"/><line style="stroke:#000000;stroke-width:1.25;" x1="116.875" x2="116.875" y1="971.2598" y2="987.5098"/><line style="stroke:#000000;stroke-width:1.25;" x1="65.625" x2="116.875" y1="987.5098" y2="987.5098"/><polygon fill="#000000" points="78.125,982.5098,65.625,987.5098,78.125,992.5098" style="stroke:#000000;stroke-width:1.25;"/><text fill="#000000" font-family="sans-serif" font-size="16.25" lengthAdjust="spacing" textLength="167.5" x="73.125" y="965.1892">createSoldiers(amount)</text><polygon fill="#000000" points="629.375,1026.6992,641.875,1031.6992,629.375,1036.6992" style="stroke:#000000;stroke-width:1.25;"/><line style="stroke:#000000;stroke-width:1.25;" x1="64.375" x2="636.875" y1="1031.6992" y2="1031.6992"/><text fill="#000000" font-family="sans-serif" font-size="16.25" lengthAdjust="spacing" textLength="125" x="73.125" y="1025.6287">giveBirth(amount)</text><path d="M618.75,1050.4492 L697.5,1050.4492 L697.5,1060.4492 L685,1072.9492 L606.25,1072.9492 L606.25,1062.9492 " fill="#EEEEEE" style="stroke:#000000;stroke-width:1.25;"/><rect fill="none" height="76.2012" rx="12.5" ry="12.5" style="stroke:#000000;stroke-width:2.5;" width="400.625" x="606.25" y="1050.4492"/><text fill="#000000" font-family="sans-serif" font-size="16.25" font-weight="bold" lengthAdjust="spacing" textLength="35" x="625" y="1068.5681">loop</text><text fill="#000000" font-family="sans-serif" font-size="13.75" font-weight="bold" lengthAdjust="spacing" textLength="73.75" x="716.25" y="1067.2229">[i&lt;amount]</text><polygon fill="#000000" points="911.875,1096.3281,924.375,1101.3281,911.875,1106.3281" style="stroke:#000000;stroke-width:1.25;"/><line style="stroke:#000000;stroke-width:1.25;stroke-dasharray:2.0,2.0;" x1="656.875" x2="919.375" y1="1101.3281" y2="1101.3281"/><text fill="#000000" font-family="sans-serif" font-size="16.25" lengthAdjust="spacing" textLength="198.75" x="665.625" y="1095.2576">&lt;&lt;Create&gt;&gt; Soldat(x,y,c,g)</text><rect fill="#FEFECE" height="39.5117" rx="12.5" ry="12.5" style="stroke:#A80036;stroke-width:1.875;" width="67.5" x="926.875" y="1073.3887"/><text fill="#000000" font-family="sans-serif" font-size="17.5" lengthAdjust="spacing" textLength="50" x="935.625" y="1100.3052">Soldat</text><polygon fill="#000000" points="78.125,1135.4004,65.625,1140.4004,78.125,1145.4004" style="stroke:#000000;stroke-width:1.25;"/><line style="stroke:#000000;stroke-width:1.25;stroke-dasharray:2.0,2.0;" x1="70.625" x2="649.375" y1="1140.4004" y2="1140.4004"/><line style="stroke:#000000;stroke-width:1.25;stroke-dasharray:2.0,2.0;" x1="64.375" x2="116.875" y1="1166.6504" y2="1166.6504"/><line style="stroke:#000000;stroke-width:1.25;stroke-dasharray:2.0,2.0;" x1="116.875" x2="116.875" y1="1166.6504" y2="1182.9004"/><line style="stroke:#000000;stroke-width:1.25;stroke-dasharray:2.0,2.0;" x1="58.125" x2="116.875" y1="1182.9004" y2="1182.9004"/><polygon fill="#000000" points="70.625,1177.9004,58.125,1182.9004,70.625,1187.9004" style="stroke:#000000;stroke-width:1.25;"/><rect fill="#EEEEEE" height="3.75" style="stroke:#EEEEEE;stroke-width:1.25;" width="1941.875" x="0" y="1213.1201"/><line style="stroke:#000000;stroke-width:1.25;" x1="0" x2="1941.875" y1="1213.1201" y2="1213.1201"/><line style="stroke:#000000;stroke-width:1.25;" x1="0" x2="1941.875" y1="1216.8701" y2="1216.8701"/><rect fill="#EEEEEE" height="30.4395" style="stroke:#000000;stroke-width:2.5;" width="257.5" x="842.1875" y="1199.1504"/><text fill="#000000" font-family="sans-serif" font-size="16.25" font-weight="bold" lengthAdjust="spacing" textLength="235" x="849.6875" y="1221.0193">Déclenchement des itérations</text><line style="stroke:#000000;stroke-width:1.25;" x1="58.125" x2="116.875" y1="1263.7793" y2="1263.7793"/><line style="stroke:#000000;stroke-width:1.25;" x1="116.875" x2="116.875" y1="1263.7793" y2="1280.0293"/><line style="stroke:#000000;stroke-width:1.25;" x1="65.625" x2="116.875" y1="1280.0293" y2="1280.0293"/><polygon fill="#000000" points="78.125,1275.0293,65.625,1280.0293,78.125,1285.0293" style="stroke:#000000;stroke-width:1.25;"/><text fill="#000000" font-family="sans-serif" font-size="16.25" lengthAdjust="spacing" textLength="115" x="73.125" y="1257.7087">play(time, false)</text><polygon fill="#000000" points="939.375,1298.7793,951.875,1303.7793,939.375,1308.7793" style="stroke:#000000;stroke-width:1.25;"/><line style="stroke:#000000;stroke-width:1.25;" x1="64.375" x2="946.875" y1="1303.7793" y2="1303.7793"/><path d="M914.375,1322.5293 L993.125,1322.5293 L993.125,1332.5293 L980.625,1345.0293 L901.875,1345.0293 L901.875,1335.0293 " fill="#EEEEEE" style="stroke:#000000;stroke-width:1.25;"/><rect fill="none" height="674.7852" rx="12.5" ry="12.5" style="stroke:#000000;stroke-width:2.5;" width="1027.5" x="901.875" y="1322.5293"/><text fill="#000000" font-family="sans-serif" font-size="16.25" font-weight="bold" lengthAdjust="spacing" textLength="35" x="920.625" y="1340.6482">loop</text><text fill="#000000" font-family="sans-serif" font-size="13.75" font-weight="bold" lengthAdjust="spacing" textLength="78.75" x="1011.875" y="1339.303">[i&lt;duration]</text><path d="M926.875,1354.2188 L1005.625,1354.2188 L1005.625,1364.2188 L993.125,1376.7188 L914.375,1376.7188 L914.375,1366.7188 " fill="#EEEEEE" style="stroke:#000000;stroke-width:1.25;"/><rect fill="none" height="634.3457" rx="12.5" ry="12.5" style="stroke:#000000;stroke-width:2.5;" width="1002.5" x="914.375" y="1354.2188"/><text fill="#000000" font-family="sans-serif" font-size="16.25" font-weight="bold" lengthAdjust="spacing" textLength="35" x="933.125" y="1372.3376">loop</text><text fill="#000000" font-family="sans-serif" font-size="13.75" font-weight="bold" lengthAdjust="spacing" textLength="156.25" x="1024.375" y="1370.9924">[Soldat s : theSoldiers]</text><polygon fill="#000000" points="1184.375,1400.0977,1196.875,1405.0977,1184.375,1410.0977" style="stroke:#000000;stroke-width:1.25;"/><line style="stroke:#000000;stroke-width:1.25;" x1="966.875" x2="1191.875" y1="1405.0977" y2="1405.0977"/><text fill="#000000" font-family="sans-serif" font-size="16.25" lengthAdjust="spacing" textLength="167.5" x="975.625" y="1399.0271">randomDirection(this.g)</text><polygon fill="#000000" points="1400.625,1438.0371,1413.125,1443.0371,1400.625,1448.0371" style="stroke:#000000;stroke-width:1.25;"/><line style="stroke:#000000;stroke-width:1.25;stroke-dasharray:2.0,2.0;" x1="1199.375" x2="1408.125" y1="1443.0371" y2="1443.0371"/><text fill="#000000" font-family="sans-serif" font-size="16.25" lengthAdjust="spacing" textLength="186.25" x="1208.125" y="1436.9666">&lt;&lt;Create&gt;&gt; Aretes(g,x,y)</text><rect fill="#FEFECE" height="39.5117" rx="12.5" ry="12.5" style="stroke:#A80036;stroke-width:1.875;" width="68.75" x="1415.625" y="1415.0977"/><text fill="#000000" font-family="sans-serif" font-size="17.5" lengthAdjust="spacing" textLength="51.25" x="1424.375" y="1442.0142">Aretes</text><line style="stroke:#000000;stroke-width:1.25;" x1="1450" x2="1508.75" y1="1490.0488" y2="1490.0488"/><line style="stroke:#000000;stroke-width:1.25;" x1="1508.75" x2="1508.75" y1="1490.0488" y2="1506.2988"/><line style="stroke:#000000;stroke-width:1.25;" x1="1457.5" x2="1508.75" y1="1506.2988" y2="1506.2988"/><polygon fill="#000000" points="1470,1501.2988,1457.5,1506.2988,1470,1511.2988" style="stroke:#000000;stroke-width:1.25;"/><text fill="#000000" font-family="sans-serif" font-size="16.25" lengthAdjust="spacing" textLength="128.75" x="1465" y="1483.9783">rechercheAretes()</text><path d="M1365.625,1531.2988 L1444.375,1531.2988 L1444.375,1541.2988 L1431.875,1553.7988 L1353.125,1553.7988 L1353.125,1543.7988 " fill="#EEEEEE" style="stroke:#000000;stroke-width:1.25;"/><rect fill="none" height="326.8262" rx="12.5" ry="12.5" style="stroke:#000000;stroke-width:2.5;" width="551.25" x="1353.125" y="1531.2988"/><text fill="#000000" font-family="sans-serif" font-size="16.25" font-weight="bold" lengthAdjust="spacing" textLength="35" x="1371.875" y="1549.4177">loop</text><text fill="#000000" font-family="sans-serif" font-size="13.75" font-weight="bold" lengthAdjust="spacing" textLength="80" x="1463.125" y="1548.0725">[y&lt;=yTab+1]</text><path d="M1378.125,1562.9883 L1456.875,1562.9883 L1456.875,1572.9883 L1444.375,1585.4883 L1365.625,1585.4883 L1365.625,1575.4883 " fill="#EEEEEE" style="stroke:#000000;stroke-width:1.25;"/><rect fill="none" height="286.3867" rx="12.5" ry="12.5" style="stroke:#000000;stroke-width:2.5;" width="526.25" x="1365.625" y="1562.9883"/><text fill="#000000" font-family="sans-serif" font-size="16.25" font-weight="bold" lengthAdjust="spacing" textLength="35" x="1384.375" y="1581.1072">loop</text><text fill="#000000" font-family="sans-serif" font-size="13.75" font-weight="bold" lengthAdjust="spacing" textLength="80" x="1475.625" y="1579.762">[x&lt;=xTab+1]</text><path d="M1390.625,1594.6777 L1454.375,1594.6777 L1454.375,1604.6777 L1441.875,1617.1777 L1378.125,1617.1777 L1378.125,1607.1777 " fill="#EEEEEE" style="stroke:#000000;stroke-width:1.25;"/><rect fill="none" height="245.9473" rx="12.5" ry="12.5" style="stroke:#000000;stroke-width:2.5;" width="501.25" x="1378.125" y="1594.6777"/><text fill="#000000" font-family="sans-serif" font-size="16.25" font-weight="bold" lengthAdjust="spacing" textLength="20" x="1396.875" y="1612.7966">alt</text><text fill="#000000" font-family="sans-serif" font-size="13.75" font-weight="bold" lengthAdjust="spacing" textLength="150" x="1473.125" y="1611.4514">[x == xTab || y == yTab]</text><path d="M1403.125,1626.3672 L1466.875,1626.3672 L1466.875,1636.3672 L1454.375,1648.8672 L1390.625,1648.8672 L1390.625,1638.8672 " fill="#EEEEEE" style="stroke:#000000;stroke-width:1.25;"/><rect fill="none" height="205.5078" rx="12.5" ry="12.5" style="stroke:#000000;stroke-width:2.5;" width="476.25" x="1390.625" y="1626.3672"/><text fill="#000000" font-family="sans-serif" font-size="16.25" font-weight="bold" lengthAdjust="spacing" textLength="20" x="1409.375" y="1644.4861">alt</text><text fill="#000000" font-family="sans-serif" font-size="13.75" font-weight="bold" lengthAdjust="spacing" textLength="210" x="1485.625" y="1643.1409">[verficationNoeud(x, y) == true]</text><line style="stroke:#000000;stroke-width:1.25;" x1="1456.25" x2="1515" y1="1670.9961" y2="1670.9961"/><line style="stroke:#000000;stroke-width:1.25;" x1="1515" x2="1515" y1="1670.9961" y2="1687.2461"/><line style="stroke:#000000;stroke-width:1.25;" x1="1463.75" x2="1515" y1="1687.2461" y2="1687.2461"/><polygon fill="#000000" points="1476.25,1682.2461,1463.75,1687.2461,1476.25,1692.2461" style="stroke:#000000;stroke-width:1.25;"/><text fill="#000000" font-family="sans-serif" font-size="16.25" lengthAdjust="spacing" textLength="150" x="1471.25" y="1664.9255">verficationNoeud(x,y)</text><path d="M1415.625,1712.2461 L1479.375,1712.2461 L1479.375,1722.2461 L1466.875,1734.7461 L1403.125,1734.7461 L1403.125,1724.7461 " fill="#EEEEEE" style="stroke:#000000;stroke-width:1.25;"/><rect fill="none" height="77.1289" rx="12.5" ry="12.5" style="stroke:#000000;stroke-width:2.5;" width="451.25" x="1403.125" y="1712.2461"/><text fill="#000000" font-family="sans-serif" font-size="16.25" font-weight="bold" lengthAdjust="spacing" textLength="20" x="1421.875" y="1730.365">alt</text><text fill="#000000" font-family="sans-serif" font-size="13.75" font-weight="bold" lengthAdjust="spacing" textLength="350" x="1498.125" y="1729.0198">[(tab[x][y] != tab[xTab][yTab]) &amp;&amp; !estObstacle[x][y]]</text><line style="stroke:#000000;stroke-width:1.25;" x1="1462.5" x2="1521.25" y1="1756.875" y2="1756.875"/><line style="stroke:#000000;stroke-width:1.25;" x1="1521.25" x2="1521.25" y1="1756.875" y2="1773.125"/><line style="stroke:#000000;stroke-width:1.25;" x1="1470" x2="1521.25" y1="1773.125" y2="1773.125"/><polygon fill="#000000" points="1482.5,1768.125,1470,1773.125,1482.5,1778.125" style="stroke:#000000;stroke-width:1.25;"/><text fill="#000000" font-family="sans-serif" font-size="16.25" lengthAdjust="spacing" textLength="128.75" x="1477.5" y="1750.8044">ajouterAretes(x,y)</text><line style="stroke:#000000;stroke-width:1.25;stroke-dasharray:2.0,2.0;" x1="1468.75" x2="1521.25" y1="1811.875" y2="1811.875"/><line style="stroke:#000000;stroke-width:1.25;stroke-dasharray:2.0,2.0;" x1="1521.25" x2="1521.25" y1="1811.875" y2="1828.125"/><line style="stroke:#000000;stroke-width:1.25;stroke-dasharray:2.0,2.0;" x1="1462.5" x2="1521.25" y1="1828.125" y2="1828.125"/><polygon fill="#000000" points="1475,1823.125,1462.5,1828.125,1475,1833.125" style="stroke:#000000;stroke-width:1.25;"/><line style="stroke:#000000;stroke-width:1.25;stroke-dasharray:2.0,2.0;" x1="1462.5" x2="1515" y1="1880.625" y2="1880.625"/><line style="stroke:#000000;stroke-width:1.25;stroke-dasharray:2.0,2.0;" x1="1515" x2="1515" y1="1880.625" y2="1896.875"/><line style="stroke:#000000;stroke-width:1.25;stroke-dasharray:2.0,2.0;" x1="1456.25" x2="1515" y1="1896.875" y2="1896.875"/><polygon fill="#000000" points="1468.75,1891.875,1456.25,1896.875,1468.75,1901.875" style="stroke:#000000;stroke-width:1.25;"/><line style="stroke:#000000;stroke-width:1.25;" x1="966.875" x2="1025.625" y1="1922.3145" y2="1922.3145"/><line style="stroke:#000000;stroke-width:1.25;" x1="1025.625" x2="1025.625" y1="1922.3145" y2="1938.5645"/><line style="stroke:#000000;stroke-width:1.25;" x1="974.375" x2="1025.625" y1="1938.5645" y2="1938.5645"/><polygon fill="#000000" points="986.875,1933.5645,974.375,1938.5645,986.875,1943.5645" style="stroke:#000000;stroke-width:1.25;"/><text fill="#000000" font-family="sans-serif" font-size="16.25" lengthAdjust="spacing" textLength="208.75" x="981.875" y="1916.2439">recherchePositionActuel(x,y)</text><line style="stroke:#000000;stroke-width:1.25;stroke-dasharray:2.0,2.0;" x1="973.125" x2="1025.625" y1="1968.5645" y2="1968.5645"/><line style="stroke:#000000;stroke-width:1.25;stroke-dasharray:2.0,2.0;" x1="1025.625" x2="1025.625" y1="1968.5645" y2="1984.8145"/><line style="stroke:#000000;stroke-width:1.25;stroke-dasharray:2.0,2.0;" x1="966.875" x2="1025.625" y1="1984.8145" y2="1984.8145"/><polygon fill="#000000" points="979.375,1979.8145,966.875,1984.8145,979.375,1989.8145" style="stroke:#000000;stroke-width:1.25;"/><line style="stroke:#000000;stroke-width:1.25;stroke-dasharray:2.0,2.0;" x1="1456.25" x2="1508.75" y1="2019.8145" y2="2019.8145"/><line style="stroke:#000000;stroke-width:1.25;stroke-dasharray:2.0,2.0;" x1="1508.75" x2="1508.75" y1="2019.8145" y2="2036.0645"/><line style="stroke:#000000;stroke-width:1.25;stroke-dasharray:2.0,2.0;" x1="1450" x2="1508.75" y1="2036.0645" y2="2036.0645"/><polygon fill="#000000" points="1462.5,2031.0645,1450,2036.0645,1462.5,2041.0645" style="stroke:#000000;stroke-width:1.25;"/><polygon fill="#000000" points="78.125,2039.8145,65.625,2044.8145,78.125,2049.8145" style="stroke:#000000;stroke-width:1.25;"/><line style="stroke:#000000;stroke-width:1.25;stroke-dasharray:2.0,2.0;" x1="70.625" x2="959.375" y1="2044.8145" y2="2044.8145"/><line style="stroke:#000000;stroke-width:1.25;stroke-dasharray:2.0,2.0;" x1="64.375" x2="116.875" y1="2071.0645" y2="2071.0645"/><line style="stroke:#000000;stroke-width:1.25;stroke-dasharray:2.0,2.0;" x1="116.875" x2="116.875" y1="2071.0645" y2="2087.3145"/><line style="stroke:#000000;stroke-width:1.25;stroke-dasharray:2.0,2.0;" x1="58.125" x2="116.875" y1="2087.3145" y2="2087.3145"/><polygon fill="#000000" points="70.625,2082.3145,58.125,2087.3145,70.625,2092.3145" style="stroke:#000000;stroke-width:1.25;"/><!--MD5=[c3b443d122d569aae306e52012b99fa9]
@startuml
'https://plantuml.com/sequence-diagram

skinparam style strictuml
skinparam responseMessageBelowArrow true
skinparam roundcorner 20
skinparam ArrowColor #black
hide footbox

participant "AntFacade" as ant #lightgreen
participant "Graphe:g" as graphe #lightcoral

== Mise en place du Graphe ==
' - - - - - - - - -GRAPHE- - - - - - - - - - - - - -
ant -> ant++ #lightgreen : createGrid(width, height)
    ant - -> graphe++ #lightcoral : <<Create>> Graphe(width, height)
return
return

graphe -> graphe++ #lightcoral : creationEmplacementNoeud()
loop i<taille.length
    loop i<taille[i].length
        ' - - - - - - - - -NOEUD- - - - - - - - - - - - - -
            create Noeud
            graphe - -> Noeud : <<Create>> Noeud(g)
            graphe <- Noeud++ : getEmplacementNoeud(n)
                return noeud
    end
end
return

ant -> ant++ #lightgreen : putObstacle(x,y)
    ant -> graphe++ #lightcoral : mettreObstacle(x,y)
return
return

== Création des Fourmis ==
' - - - - - - - - -REINE- - - - - - - - - - - - - -
ant -> ant++ #lightgreen : createColony(x, y)
create Reine
    ant - -> Reine : <<Create>> Reine(x,y,g)
return

' - - - - - - - - -COLONIE- - - - - - - - - - - - - -
create Colonie
Reine - -> Colonie : <<Create>> Colonie()

ant -> ant++ #lightgreen : createSoldiers(amount)
    ant -> Reine++ #lightblue : giveBirth(amount)
    loop i<amount
        ' - - - - - - - - -SOLDAT- - - - - - - - - - - - - -
        create Soldat
        Reine - -> Soldat : <<Create>> Soldat(x,y,c,g)
    end
return
return

participant "FourmisMove" #Wheat
== Déclenchement des itérations ==
ant -> ant++ #DarkSalmon : play(time, false)
ant -> Soldat++ #DarkSalmon
loop i<duration
    loop Soldat s : theSoldiers
        Soldat -> FourmisMove : randomDirection(this.g)
        ' - - - - - - - - -ARETES- - - - - - - - - - - - - -
        create Aretes
        FourmisMove - -> Aretes : <<Create>> Aretes(g,x,y)
        Aretes -> Aretes++ #DarkSalmon : rechercheAretes()
        loop y<=yTab+1
            loop x<=xTab+1
                alt x == xTab || y == yTab
                    alt verficationNoeud(x, y) == true
                        Aretes -> Aretes++ #FFBBBB : verficationNoeud(x,y)
                            alt (tab[x][y] != tab[xTab][yTab]) && !estObstacle[x][y]
                                Aretes -> Aretes++ #FFBBBB : ajouterAretes(x,y)
                            end
                        return
                    end
                end
            end
        end
            return
        Soldat -> Soldat++ #FFBBBB : recherchePositionActuel(x,y)
            return
    end
end
return
return
return




@enduml

@startuml

skinparam style strictuml
skinparam responseMessageBelowArrow true
skinparam roundcorner 20
skinparam ArrowColor #black
hide footbox

participant "AntFacade" as ant #lightgreen
participant "Graphe:g" as graphe #lightcoral

== Mise en place du Graphe ==
ant -> ant++ #lightgreen : createGrid(width, height)
    ant - -> graphe++ #lightcoral : <<Create>> Graphe(width, height)
return
return

graphe -> graphe++ #lightcoral : creationEmplacementNoeud()
loop i<taille.length
    loop i<taille[i].length
            create Noeud
            graphe - -> Noeud : <<Create>> Noeud(g)
            graphe <- Noeud++ : getEmplacementNoeud(n)
                return noeud
    end
end
return

ant -> ant++ #lightgreen : putObstacle(x,y)
    ant -> graphe++ #lightcoral : mettreObstacle(x,y)
return
return

== Création des Fourmis ==
ant -> ant++ #lightgreen : createColony(x, y)
create Reine
    ant - -> Reine : <<Create>> Reine(x,y,g)
return

create Colonie
Reine - -> Colonie : <<Create>> Colonie()

ant -> ant++ #lightgreen : createSoldiers(amount)
    ant -> Reine++ #lightblue : giveBirth(amount)
    loop i<amount
        create Soldat
        Reine - -> Soldat : <<Create>> Soldat(x,y,c,g)
    end
return
return

participant "FourmisMove" #Wheat
== Déclenchement des itérations ==
ant -> ant++ #DarkSalmon : play(time, false)
ant -> Soldat++ #DarkSalmon
loop i<duration
    loop Soldat s : theSoldiers
        Soldat -> FourmisMove : randomDirection(this.g)
        create Aretes
        FourmisMove - -> Aretes : <<Create>> Aretes(g,x,y)
        Aretes -> Aretes++ #DarkSalmon : rechercheAretes()
        loop y<=yTab+1
            loop x<=xTab+1
                alt x == xTab || y == yTab
                    alt verficationNoeud(x, y) == true
                        Aretes -> Aretes++ #FFBBBB : verficationNoeud(x,y)
                            alt (tab[x][y] != tab[xTab][yTab]) && !estObstacle[x][y]
                                Aretes -> Aretes++ #FFBBBB : ajouterAretes(x,y)
                            end
                        return
                    end
                end
            end
        end
            return
        Soldat -> Soldat++ #FFBBBB : recherchePositionActuel(x,y)
            return
    end
end
return
return
return




@enduml

PlantUML version 1.2021.5(Sun Apr 25 13:20:28 CEST 2021)
(GPL source distribution)
Java Runtime: OpenJDK Runtime Environment
JVM: Dynamic Code Evolution 64-Bit Server VM
Default Encoding: Cp1252
Language: fr
Country: FR
--></g></svg>