<?xml version="1.0" encoding="UTF-8" standalone="no"?><svg xmlns="http://www.w3.org/2000/svg" xmlns:xlink="http://www.w3.org/1999/xlink" contentScriptType="application/ecmascript" contentStyleType="text/css" height="2066.25px" preserveAspectRatio="none" style="width:896px;height:2066px;" version="1.1" viewBox="0 0 896 2066" width="896.25px" zoomAndPan="magnify"><defs/><g><!--MD5=[a0f70b14f434af550f918fbfcd5ee071]
cluster Diagramme de Classe d'Analyse V2 --><path d="M20,7.5 L310,7.5 A18.75,18.75 0 0 1 322.5,20 L331.25,37.0117 L870,37.0117 A12.5,12.5 0 0 1 882.5,49.5117 L882.5,2040 A12.5,12.5 0 0 1 870,2052.5 L20,2052.5 A12.5,12.5 0 0 1 7.5,2040 L7.5,20 A12.5,12.5 0 0 1 20,7.5 " fill="#FFFFFF" style="stroke:#000000;stroke-width:1.875;"/><line style="stroke:#000000;stroke-width:1.875;" x1="7.5" x2="331.25" y1="37.0117" y2="37.0117"/><text fill="#000000" font-family="sans-serif" font-size="17.5" font-weight="bold" lengthAdjust="spacing" textLength="302.5" x="12.5" y="28.1665">Diagramme de Classe d'Analyse V2</text><!--MD5=[e5168f4970614e1706ed633636598618]
class AntFacadeController--><rect codeLine="10" fill="#FFC0CB" height="70.2344" id="AntFacadeController" rx="12.5" ry="12.5" style="stroke:#FF0000;stroke-width:2.5;" width="156.25" x="39.375" y="52.5"/><text fill="#000000" font-family="sans-serif" font-size="15" font-style="italic" lengthAdjust="spacing" textLength="76.25" x="79.375" y="74.3213">«interface»</text><text fill="#000000" font-family="sans-serif" font-size="15" font-style="italic" font-weight="bold" lengthAdjust="spacing" textLength="148.75" x="43.125" y="93.1885">AntFacadeController</text><line style="stroke:#FF0000;stroke-width:2.5;" x1="40.625" x2="194.375" y1="102.7344" y2="102.7344"/><line style="stroke:#FF0000;stroke-width:2.5;" x1="40.625" x2="194.375" y1="112.7344" y2="112.7344"/><!--MD5=[af0a8305a588b84ac555c67f9d0f0fdf]
class Graphe--><rect codeLine="14" fill="#F08080" height="172.4316" id="Graphe" rx="12.5" ry="12.5" style="stroke:#A80036;stroke-width:2.5;" width="130" x="372.5" y="245.625"/><text fill="#000000" font-family="sans-serif" font-size="15" font-weight="bold" lengthAdjust="spacing" textLength="51.25" x="411.875" y="267.4463">Graphe</text><line style="stroke:#A80036;stroke-width:2.5;" x1="373.75" x2="501.25" y1="276.9922" y2="276.9922"/><text fill="#000000" font-family="sans-serif" font-size="13.75" lengthAdjust="spacing" textLength="72.5" x="380" y="296.2659">estObstacle</text><text fill="#000000" font-family="sans-serif" font-size="13.75" lengthAdjust="spacing" textLength="78.75" x="380" y="313.5608">estNourriture</text><text fill="#000000" font-family="sans-serif" font-size="13.75" lengthAdjust="spacing" textLength="77.5" x="380" y="330.8557">quantityFood</text><text fill="#000000" font-family="sans-serif" font-size="13.75" lengthAdjust="spacing" textLength="115" x="380" y="348.1506">quantityPheromone</text><text fill="#000000" font-family="sans-serif" font-size="13.75" lengthAdjust="spacing" textLength="25" x="380" y="365.4456">row</text><text fill="#000000" font-family="sans-serif" font-size="13.75" lengthAdjust="spacing" textLength="42.5" x="380" y="382.7405">column</text><text fill="#000000" font-family="sans-serif" font-size="13.75" lengthAdjust="spacing" textLength="57.5" x="380" y="400.0354">theNoeud</text><line style="stroke:#A80036;stroke-width:2.5;" x1="373.75" x2="501.25" y1="408.0566" y2="408.0566"/><!--MD5=[cd8a70aa33f1eb81dbb0a178e8570315]
class Colonie--><rect codeLine="24" fill="#DEB887" height="137.8418" id="Colonie" rx="12.5" ry="12.5" style="stroke:#A80036;stroke-width:1.875;" width="123.75" x="348.125" y="1895"/><text fill="#000000" font-family="sans-serif" font-size="15" font-weight="bold" lengthAdjust="spacing" textLength="52.5" x="383.75" y="1916.8213">Colonie</text><line style="stroke:#A80036;stroke-width:1.875;" x1="349.375" x2="470.625" y1="1926.3672" y2="1926.3672"/><text fill="#000000" font-family="sans-serif" font-size="13.75" lengthAdjust="spacing" textLength="68.75" x="355.625" y="1945.6409">numColonie</text><text fill="#000000" font-family="sans-serif" font-size="13.75" lengthAdjust="spacing" textLength="108.75" x="355.625" y="1962.9358">evaporationParam</text><text fill="#000000" font-family="sans-serif" font-size="13.75" lengthAdjust="spacing" textLength="65" x="355.625" y="1980.2307">foodParam</text><text fill="#000000" font-family="sans-serif" font-size="13.75" lengthAdjust="spacing" textLength="105" x="355.625" y="1997.5256">pheromoneParam</text><text fill="#000000" font-family="sans-serif" font-size="13.75" lengthAdjust="spacing" textLength="77.5" x="355.625" y="2014.8206">quantityFood</text><line style="stroke:#A80036;stroke-width:1.875;" x1="349.375" x2="470.625" y1="2022.8418" y2="2022.8418"/><!--MD5=[a2a0c48b1c71f3706f132a6dade0ff8c]
class Noeud--><rect codeLine="32" fill="#DEB887" height="68.6621" id="Noeud" rx="12.5" ry="12.5" style="stroke:#A80036;stroke-width:1.875;" width="126.25" x="660.625" y="297.5"/><text fill="#000000" font-family="sans-serif" font-size="15" font-weight="bold" lengthAdjust="spacing" textLength="45" x="701.25" y="319.3213">Noeud</text><line style="stroke:#A80036;stroke-width:1.875;" x1="661.875" x2="785.625" y1="328.8672" y2="328.8672"/><text fill="#000000" font-family="sans-serif" font-size="13.75" lengthAdjust="spacing" textLength="111.25" x="668.125" y="348.1409">coordonneeNoeud</text><line style="stroke:#A80036;stroke-width:1.875;" x1="661.875" x2="785.625" y1="356.1621" y2="356.1621"/><!--MD5=[29a3dacb05158a5f88c9c55a70097ca0]
class AntFacade--><rect codeLine="36" fill="#F5DEB3" height="224.3164" id="AntFacade" rx="12.5" ry="12.5" style="stroke:#A80036;stroke-width:2.5;" width="85" x="75" y="220"/><text fill="#000000" font-family="sans-serif" font-size="15" font-weight="bold" lengthAdjust="spacing" textLength="75" x="80" y="241.8213">AntFacade</text><line style="stroke:#A80036;stroke-width:2.5;" x1="76.25" x2="158.75" y1="251.3672" y2="251.3672"/><text fill="#000000" font-family="sans-serif" font-size="13.75" lengthAdjust="spacing" textLength="22.5" x="82.5" y="270.6409">grid</text><text fill="#000000" font-family="sans-serif" font-size="13.75" lengthAdjust="spacing" textLength="42.5" x="82.5" y="287.9358">graphe</text><text fill="#000000" font-family="sans-serif" font-size="13.75" lengthAdjust="spacing" textLength="67.5" x="82.5" y="305.2307">theSoldiers</text><text fill="#000000" font-family="sans-serif" font-size="13.75" lengthAdjust="spacing" textLength="70" x="82.5" y="322.5256">theWorkers</text><text fill="#000000" font-family="sans-serif" font-size="13.75" lengthAdjust="spacing" textLength="30" x="82.5" y="339.8206">reine</text><text fill="#000000" font-family="sans-serif" font-size="13.75" lengthAdjust="spacing" textLength="33.75" x="82.5" y="357.1155">width</text><text fill="#000000" font-family="sans-serif" font-size="13.75" lengthAdjust="spacing" textLength="36.25" x="82.5" y="374.4104">height</text><text fill="#000000" font-family="sans-serif" font-size="13.75" lengthAdjust="spacing" textLength="51.25" x="82.5" y="391.7053">xColonie</text><text fill="#000000" font-family="sans-serif" font-size="13.75" lengthAdjust="spacing" textLength="51.25" x="82.5" y="409.0002">yColonie</text><text fill="#000000" font-family="sans-serif" font-size="13.75" lengthAdjust="spacing" textLength="48.75" x="82.5" y="426.2952">antHisto</text><line style="stroke:#A80036;stroke-width:2.5;" x1="76.25" x2="158.75" y1="434.3164" y2="434.3164"/><!--MD5=[987afba12674ab6224d1208f49aa3f32]
class AntFacadeHistorique--><rect codeLine="49" fill="#F5DEB3" height="172.4316" id="AntFacadeHistorique" rx="12.5" ry="12.5" style="stroke:#A80036;stroke-width:2.5;" width="155" x="73.75" y="1008.75"/><text fill="#000000" font-family="sans-serif" font-size="15" font-weight="bold" lengthAdjust="spacing" textLength="147.5" x="77.5" y="1030.5713">AntFacadeHistorique</text><line style="stroke:#A80036;stroke-width:2.5;" x1="75" x2="227.5" y1="1040.1172" y2="1040.1172"/><text fill="#000000" font-family="sans-serif" font-size="13.75" lengthAdjust="spacing" textLength="22.5" x="81.25" y="1059.3909">grid</text><text fill="#000000" font-family="sans-serif" font-size="13.75" lengthAdjust="spacing" textLength="33.75" x="81.25" y="1076.6858">width</text><text fill="#000000" font-family="sans-serif" font-size="13.75" lengthAdjust="spacing" textLength="36.25" x="81.25" y="1093.9807">height</text><text fill="#000000" font-family="sans-serif" font-size="13.75" lengthAdjust="spacing" textLength="73.75" x="81.25" y="1111.2756">durationPlay</text><text fill="#000000" font-family="sans-serif" font-size="13.75" lengthAdjust="spacing" textLength="27.5" x="81.25" y="1128.5706">fLog</text><text fill="#000000" font-family="sans-serif" font-size="13.75" lengthAdjust="spacing" textLength="17.5" x="81.25" y="1145.8655">fw</text><text fill="#000000" font-family="sans-serif" font-size="13.75" lengthAdjust="spacing" textLength="42.5" x="81.25" y="1163.1604">graphe</text><line style="stroke:#A80036;stroke-width:2.5;" x1="75" x2="227.5" y1="1171.1816" y2="1171.1816"/><!--MD5=[09a5143a5308ffa6e72c5e2108347c04]
class Fourmis--><rect codeLine="59" fill="#90EE90" height="70.2344" id="Fourmis" rx="12.5" ry="12.5" style="stroke:#008000;stroke-width:1.875;" width="78.75" x="483.125" y="541.25"/><text fill="#000000" font-family="sans-serif" font-size="15" font-style="italic" lengthAdjust="spacing" textLength="76.25" x="484.375" y="563.0713">«interface»</text><text fill="#000000" font-family="sans-serif" font-size="15" font-style="italic" font-weight="bold" lengthAdjust="spacing" textLength="58.75" x="493.125" y="581.9385">Fourmis</text><line style="stroke:#008000;stroke-width:1.875;" x1="484.375" x2="560.625" y1="591.4844" y2="591.4844"/><line style="stroke:#008000;stroke-width:1.875;" x1="484.375" x2="560.625" y1="601.4844" y2="601.4844"/><!--MD5=[fb42f63e3a0f62f73f4fc52c072eeb9a]
class Reine--><rect codeLine="62" fill="#ADD8E6" height="155.1367" id="Reine" rx="12.5" ry="12.5" style="stroke:#008000;stroke-width:1.875;" width="85" x="255" y="816.25"/><text fill="#000000" font-family="sans-serif" font-size="15" font-weight="bold" lengthAdjust="spacing" textLength="40" x="277.5" y="838.0713">Reine</text><line style="stroke:#008000;stroke-width:1.875;" x1="256.25" x2="338.75" y1="847.6172" y2="847.6172"/><text fill="#000000" font-family="sans-serif" font-size="13.75" lengthAdjust="spacing" textLength="7.5" x="262.5" y="866.8909">x</text><text fill="#000000" font-family="sans-serif" font-size="13.75" lengthAdjust="spacing" textLength="7.5" x="262.5" y="884.1858">y</text><text fill="#000000" font-family="sans-serif" font-size="13.75" lengthAdjust="spacing" textLength="42.5" x="262.5" y="901.4807">colonie</text><text fill="#000000" font-family="sans-serif" font-size="13.75" lengthAdjust="spacing" textLength="42.5" x="262.5" y="918.7756">graphe</text><text fill="#000000" font-family="sans-serif" font-size="13.75" lengthAdjust="spacing" textLength="67.5" x="262.5" y="936.0706">theSoldiers</text><text fill="#000000" font-family="sans-serif" font-size="13.75" lengthAdjust="spacing" textLength="70" x="262.5" y="953.3655">theWorkers</text><line style="stroke:#008000;stroke-width:1.875;" x1="256.25" x2="338.75" y1="961.3867" y2="961.3867"/><!--MD5=[3919dc0ea9e72d54ef410bd350e8d7e8]
class IFourmisMove--><rect codeLine="71" fill="#90EE90" height="70.2344" id="IFourmisMove" rx="12.5" ry="12.5" style="stroke:#008000;stroke-width:1.875;" width="110" x="392.5" y="708.75"/><text fill="#000000" font-family="sans-serif" font-size="15" font-style="italic" lengthAdjust="spacing" textLength="76.25" x="409.375" y="730.5713">«interface»</text><text fill="#000000" font-family="sans-serif" font-size="15" font-style="italic" font-weight="bold" lengthAdjust="spacing" textLength="102.5" x="396.25" y="749.4385">IFourmisMove</text><line style="stroke:#008000;stroke-width:1.875;" x1="393.75" x2="501.25" y1="758.9844" y2="758.9844"/><line style="stroke:#008000;stroke-width:1.875;" x1="393.75" x2="501.25" y1="768.9844" y2="768.9844"/><!--MD5=[8b4fecfb5224a79d78d7b245c69bea9b]
class FourmisMove--><rect codeLine="75" fill="#90EE90" height="103.252" id="FourmisMove" rx="12.5" ry="12.5" style="stroke:#008000;stroke-width:1.875;" width="106.25" x="594.375" y="1043.125"/><text fill="#000000" font-family="sans-serif" font-size="15" font-style="italic" font-weight="bold" lengthAdjust="spacing" textLength="98.75" x="598.125" y="1064.9463">FourmisMove</text><line style="stroke:#008000;stroke-width:1.875;" x1="595.625" x2="699.375" y1="1074.4922" y2="1074.4922"/><text fill="#000000" font-family="sans-serif" font-size="13.75" lengthAdjust="spacing" textLength="55" x="601.875" y="1093.7659">listNoeud</text><text fill="#000000" font-family="sans-serif" font-size="13.75" lengthAdjust="spacing" textLength="45" x="601.875" y="1111.0608">random</text><text fill="#000000" font-family="sans-serif" font-size="13.75" lengthAdjust="spacing" textLength="40" x="601.875" y="1128.3557">record</text><line style="stroke:#008000;stroke-width:1.875;" x1="595.625" x2="699.375" y1="1136.377" y2="1136.377"/><!--MD5=[eaecdb4d60f1acc22a4989f71e32ee67]
class Soldat--><rect codeLine="81" fill="#9370D8" height="172.4316" id="Soldat" rx="12.5" ry="12.5" style="stroke:#9400D3;stroke-width:1.875;" width="100" x="88.75" y="1371.875"/><text fill="#000000" font-family="sans-serif" font-size="15" font-weight="bold" lengthAdjust="spacing" textLength="45" x="116.25" y="1393.6963">Soldat</text><line style="stroke:#9400D3;stroke-width:1.875;" x1="90" x2="187.5" y1="1403.2422" y2="1403.2422"/><text fill="#000000" font-family="sans-serif" font-size="13.75" lengthAdjust="spacing" textLength="82.5" x="96.25" y="1422.5159">nombreSoldat</text><text fill="#000000" font-family="sans-serif" font-size="13.75" lengthAdjust="spacing" textLength="42.5" x="96.25" y="1439.8108">colonie</text><text fill="#000000" font-family="sans-serif" font-size="13.75" lengthAdjust="spacing" textLength="7.5" x="96.25" y="1457.1057">x</text><text fill="#000000" font-family="sans-serif" font-size="13.75" lengthAdjust="spacing" textLength="7.5" x="96.25" y="1474.4006">y</text><text fill="#000000" font-family="sans-serif" font-size="13.75" lengthAdjust="spacing" textLength="7.5" x="96.25" y="1491.6956">g</text><text fill="#000000" font-family="sans-serif" font-size="13.75" lengthAdjust="spacing" textLength="85" x="96.25" y="1508.9905">positionActuel</text><text fill="#000000" font-family="sans-serif" font-size="13.75" lengthAdjust="spacing" textLength="82.5" x="96.25" y="1526.2854">numeroSoldat</text><line style="stroke:#9400D3;stroke-width:1.875;" x1="90" x2="187.5" y1="1534.3066" y2="1534.3066"/><!--MD5=[3d216958cbe5f528f91bafce4c8c4d68]
class MoveOuvrier--><rect codeLine="91" fill="#FFD700" height="276.2012" id="MoveOuvrier" rx="12.5" ry="12.5" style="stroke:#DAA520;stroke-width:1.875;" width="128.75" x="733.125" y="1320"/><text fill="#000000" font-family="sans-serif" font-size="15" font-style="italic" font-weight="bold" lengthAdjust="spacing" textLength="93.75" x="750.625" y="1341.8213">MoveOuvrier</text><line style="stroke:#DAA520;stroke-width:1.875;" x1="734.375" x2="860.625" y1="1351.3672" y2="1351.3672"/><text fill="#000000" font-family="sans-serif" font-size="13.75" lengthAdjust="spacing" textLength="7.5" x="740.625" y="1370.6409">x</text><text fill="#000000" font-family="sans-serif" font-size="13.75" lengthAdjust="spacing" textLength="7.5" x="740.625" y="1387.9358">y</text><text fill="#000000" font-family="sans-serif" font-size="13.75" lengthAdjust="spacing" textLength="42.5" x="740.625" y="1405.2307">graphe</text><text fill="#000000" font-family="sans-serif" font-size="13.75" lengthAdjust="spacing" textLength="85" x="740.625" y="1422.5256">positionActuel</text><text fill="#000000" font-family="sans-serif" font-size="13.75" lengthAdjust="spacing" textLength="55" x="740.625" y="1439.8206">listNoeud</text><text fill="#000000" font-family="sans-serif" font-size="13.75" lengthAdjust="spacing" textLength="95" x="740.625" y="1457.1155">listNoeudRetour</text><text fill="#000000" font-family="sans-serif" font-size="13.75" lengthAdjust="spacing" textLength="41.25" x="740.625" y="1474.4104">aVisite</text><text fill="#000000" font-family="sans-serif" font-size="13.75" lengthAdjust="spacing" textLength="62.5" x="740.625" y="1491.7053">etatRetour</text><text fill="#000000" font-family="sans-serif" font-size="13.75" lengthAdjust="spacing" textLength="113.75" x="740.625" y="1509.0002">quantityFoodTaken</text><text fill="#000000" font-family="sans-serif" font-size="13.75" lengthAdjust="spacing" textLength="42.5" x="740.625" y="1526.2952">colonie</text><text fill="#000000" font-family="sans-serif" font-size="13.75" lengthAdjust="spacing" textLength="45" x="740.625" y="1543.5901">random</text><text fill="#000000" font-family="sans-serif" font-size="13.75" lengthAdjust="spacing" textLength="40" x="740.625" y="1560.885">record</text><text fill="#000000" font-family="sans-serif" font-size="13.75" lengthAdjust="spacing" textLength="72.5" x="740.625" y="1578.1799">estObstacle</text><line style="stroke:#DAA520;stroke-width:1.875;" x1="734.375" x2="860.625" y1="1586.2012" y2="1586.2012"/><!--MD5=[137f942763a0ddbfb9a941d3a11ef72b]
class Ouvrier--><rect codeLine="107" fill="#9370D8" height="103.252" id="Ouvrier" rx="12.5" ry="12.5" style="stroke:#9400D3;stroke-width:1.875;" width="105" x="492.5" y="1693.75"/><text fill="#000000" font-family="sans-serif" font-size="15" font-weight="bold" lengthAdjust="spacing" textLength="52.5" x="518.75" y="1715.5713">Ouvrier</text><line style="stroke:#9400D3;stroke-width:1.875;" x1="493.75" x2="596.25" y1="1725.1172" y2="1725.1172"/><text fill="#000000" font-family="sans-serif" font-size="13.75" lengthAdjust="spacing" textLength="90" x="500" y="1744.3909">nombreOuvrier</text><text fill="#000000" font-family="sans-serif" font-size="13.75" lengthAdjust="spacing" textLength="42.5" x="500" y="1761.6858">colonie</text><text fill="#000000" font-family="sans-serif" font-size="13.75" lengthAdjust="spacing" textLength="7.5" x="500" y="1778.9807">g</text><line style="stroke:#9400D3;stroke-width:1.875;" x1="493.75" x2="596.25" y1="1787.002" y2="1787.002"/><!--MD5=[31f0f796724236ed75d44052e95e31e3]
reverse link AntFacadeController to AntFacade--><path codeLine="115" d="M117.5,148.05 C117.5,169.675 117.5,194.875 117.5,219.5375 " fill="none" id="AntFacadeController-backto-AntFacade" style="stroke:#A80036;stroke-width:1.25;stroke-dasharray:7.0,7.0;"/><polygon fill="none" points="108.75,147.8875,117.5,122.8875,126.25,147.8875,108.75,147.8875" style="stroke:#A80036;stroke-width:1.25;"/><text fill="#000000" font-family="sans-serif" font-size="16.25" lengthAdjust="spacing" textLength="101.25" x="118.75" y="178.1189">«implements»</text><!--MD5=[4d3c084745348fd44f5c9f1fd6e6880c]
link AntFacade to Graphe--><path codeLine="116" d="M160.325,331.875 C207.8625,331.875 285.95,331.875 347.1375,331.875 " fill="none" id="AntFacade-to-Graphe" style="stroke:#A80036;stroke-width:1.25;stroke-dasharray:7.0,7.0;"/><polygon fill="none" points="347.2,323.125,372.2,331.875,347.2,340.625,347.2,323.125" style="stroke:#A80036;stroke-width:1.25;"/><text fill="#000000" font-family="sans-serif" font-size="16.25" lengthAdjust="spacing" textLength="92.5" x="220" y="323.7439">«instantiate»</text><!--MD5=[33ff75dd7137565e0ffebd8ee96aba71]
link AntFacade to Reine--><path codeLine="117" d="M130.95,443.95 C138.8375,495.525 150.65,557.275 167.5,611.25 C191.875,689.325 209.3375,704.55 243.75,778.75 C245.9375,783.475 248.1875,788.3 250.4625,793.175 " fill="none" id="AntFacade-to-Reine" style="stroke:#A80036;stroke-width:1.25;stroke-dasharray:7.0,7.0;"/><polygon fill="none" points="258.5125,789.7375,261.2125,816.0875,242.675,797.1625,258.5125,789.7375" style="stroke:#A80036;stroke-width:1.25;"/><text fill="#000000" font-family="sans-serif" font-size="16.25" lengthAdjust="spacing" textLength="92.5" x="168.75" y="583.1189">«instantiate»</text><!--MD5=[8f304291b726e98d2b5af8a4761af9a6]
link AntFacade to AntFacadeHistorique--><path codeLine="118" d="M88.35,444.0375 C68.4375,534.275 48.225,664.8625 63.75,778.75 C73.2625,848.5625 94.125,924.75 113.1,984.7 " fill="none" id="AntFacade-to-AntFacadeHistorique" style="stroke:#A80036;stroke-width:1.25;stroke-dasharray:7.0,7.0;"/><polygon fill="none" points="121.425,982.025,120.8,1008.5,104.775,987.4,121.425,982.025" style="stroke:#A80036;stroke-width:1.25;"/><text fill="#000000" font-family="sans-serif" font-size="16.25" lengthAdjust="spacing" textLength="92.5" x="61.25" y="666.8689">«instantiate»</text><!--MD5=[fc576e9f977dff88ee29d4352d2f6d44]
link Graphe to Noeud--><path codeLine="120" d="M517.8125,331.875 C517.8125,331.875 604.8125,331.875 643.55,331.875 " fill="none" id="Graphe-Noeud" style="stroke:#A80036;stroke-width:1.25;"/><polygon fill="#A80036" points="660.2,331.875,648.95,326.875,653.95,331.875,648.95,336.875,660.2,331.875" style="stroke:#A80036;stroke-width:1.25;"/><line style="stroke:#A80036;stroke-width:1.25;" x1="653.95" x2="643.95" y1="331.875" y2="331.875"/><polygon fill="#A80036" points="502.8125,331.875,510.3125,336.875,517.8125,331.875,510.3125,326.875,502.8125,331.875" style="stroke:#A80036;stroke-width:1.25;"/><polygon fill="#000000" points="555.9375,317.0947,544.6311,313.4211,544.6311,320.7684,555.9375,317.0947" style="stroke:#000000;stroke-width:1.25;"/><text fill="#000000" font-family="sans-serif" font-size="16.25" lengthAdjust="spacing" textLength="57.5" x="560.9375" y="323.7439">contient</text><!--MD5=[c449efe8492acf6bfbec7badbb4f3553]
link Reine to Colonie--><path codeLine="122" d="M352.4359,975.3698 C352.4359,975.3698 413.875,977.0625 435,1008.75 C477.525,1072.5375 472.775,1114.5375 435,1181.25 C419.0375,1209.4375 388.4625,1190.5625 372.5,1218.75 C356.4875,1247.025 388.7625,1689.65 403.35,1878.3375 " fill="none" id="Reine-Colonie" style="stroke:#A80036;stroke-width:1.25;"/><polygon fill="#A80036" points="404.6125,1894.7125,408.7193,1883.1066,404.1247,1888.4816,398.7498,1883.887,404.6125,1894.7125" style="stroke:#A80036;stroke-width:1.25;"/><line style="stroke:#A80036;stroke-width:1.25;" x1="404.1247" x2="403.3563" y1="1888.4816" y2="1878.5063"/><polygon fill="#A80036" points="340.125,966.8,343.4238,975.1885,352.4359,975.3698,349.1371,966.9813,340.125,966.8" style="stroke:#A80036;stroke-width:1.25;"/><polygon fill="#000000" points="389.1018,1464.5848,392.1332,1453.0896,384.7975,1453.5032,389.1018,1464.5848" style="stroke:#000000;stroke-width:1.25;"/><text fill="#000000" font-family="sans-serif" font-size="16.25" lengthAdjust="spacing" textLength="71.25" x="400" y="1464.9939">appartient</text><!--MD5=[aa958fc026de03b510107b351326c664]
link Noeud to Fourmis--><path codeLine="123" d="M686.1727,378.2966 C686.1727,378.2966 597.1,485.3375 561.4,528.25 " fill="none" id="Noeud-Fourmis" style="stroke:#A80036;stroke-width:1.25;"/><polygon fill="#A80036" points="550.9,540.875,561.9371,535.421,554.8957,536.0691,554.2476,529.0278,550.9,540.875" style="stroke:#A80036;stroke-width:1.25;"/><line style="stroke:#A80036;stroke-width:1.25;" x1="554.8957" x2="561.2875" y1="536.0691" y2="528.3875"/><polygon fill="#A80036" points="695.7625,366.7625,687.1229,369.333,686.1727,378.2966,694.8123,375.7262,695.7625,366.7625" style="stroke:#A80036;stroke-width:1.25;"/><polygon fill="#000000" points="601.0024,497.5241,611.058,491.1826,605.4102,486.4832,601.0024,497.5241" style="stroke:#000000;stroke-width:1.25;"/><text fill="#000000" font-family="sans-serif" font-size="16.25" lengthAdjust="spacing" textLength="67.5" x="616.25" y="499.3689">comporte</text><!--MD5=[e3cf1bad306394dea539d877022b33d3]
reverse link Fourmis to Reine--><path codeLine="125" d="M459.7,601.4625 C436.475,612.875 411.5125,628.525 393.75,648.75 C352.0125,696.2625 327.225,764.0375 313.2875,816.075 " fill="none" id="Fourmis-backto-Reine" style="stroke:#A80036;stroke-width:1.25;stroke-dasharray:7.0,7.0;"/><polygon fill="none" points="456.4875,593.3125,482.8875,591.0875,463.6375,609.2875,456.4875,593.3125" style="stroke:#A80036;stroke-width:1.25;"/><text fill="#000000" font-family="sans-serif" font-size="16.25" lengthAdjust="spacing" textLength="101.25" x="395" y="666.8689">«implements»</text><!--MD5=[2ede103ab60d1c177d94c20dc675636b]
reverse link Fourmis to IFourmisMove--><path codeLine="126" d="M518.075,636.3125 C515.8125,648.2375 512.4625,660.425 507.5,671.25 C501.375,684.625 492.025,697.5 482.5125,708.5375 " fill="none" id="Fourmis-backto-IFourmisMove" style="stroke:#A80036;stroke-width:1.25;stroke-dasharray:7.0,7.0;"/><polygon fill="none" points="509.4375,634.9,521.475,611.3,526.775,637.2625,509.4375,634.9" style="stroke:#A80036;stroke-width:1.25;"/><text fill="#000000" font-family="sans-serif" font-size="16.25" lengthAdjust="spacing" textLength="75" x="516.25" y="666.8689">«extends»</text><!--MD5=[362ae09f5c890a6351451a077516eda3]
reverse link IFourmisMove to FourmisMove--><path codeLine="128" d="M441.4,804.05 C439.4625,853.4 444.425,923.225 480,971.25 C503.375,1002.8 527.6875,986.425 560,1008.75 C574.2875,1018.625 588.4,1030.8875 600.9875,1043.0125 " fill="none" id="IFourmisMove-backto-FourmisMove" style="stroke:#A80036;stroke-width:1.25;stroke-dasharray:7.0,7.0;"/><polygon fill="none" points="432.675,803.375,443.0375,779,450.1375,804.525,432.675,803.375" style="stroke:#A80036;stroke-width:1.25;"/><text fill="#000000" font-family="sans-serif" font-size="16.25" lengthAdjust="spacing" textLength="101.25" x="481.25" y="900.6189">«implements»</text><!--MD5=[4dcfc82796a01e2c99126645f92e7692]
reverse link FourmisMove to MoveOuvrier--><path codeLine="129" d="M678.3125,1170.3125 C696.2375,1213.425 719.4,1269.1125 740.5375,1319.925 " fill="none" id="FourmisMove-backto-MoveOuvrier" style="stroke:#A80036;stroke-width:1.25;stroke-dasharray:7.0,7.0;"/><polygon fill="none" points="670.2,1173.6,668.675,1147.15,686.35,1166.875,670.2,1173.6" style="stroke:#A80036;stroke-width:1.25;"/><text fill="#000000" font-family="sans-serif" font-size="16.25" lengthAdjust="spacing" textLength="0" x="763.75" y="1236.8689"/><text fill="#000000" font-family="sans-serif" font-size="16.25" lengthAdjust="spacing" textLength="0" x="763.75" y="1257.3083"/><text fill="#000000" font-family="sans-serif" font-size="16.25" lengthAdjust="spacing" textLength="75" x="723.75" y="1277.7478">«extends»</text><!--MD5=[bb79c93e53558c8686560167b2eb1187]
reverse link FourmisMove to Soldat--><path codeLine="130" d="M571.525,1133.4875 C456.975,1190.0375 250.4,1293.7875 222.5,1320 C206.7625,1334.7875 192.8875,1353.1625 181.175,1371.6 " fill="none" id="FourmisMove-backto-Soldat" style="stroke:#A80036;stroke-width:1.25;stroke-dasharray:7.0,7.0;"/><polygon fill="none" points="567.8375,1125.55,594.1375,1122.35,575.575,1141.25,567.8375,1125.55" style="stroke:#A80036;stroke-width:1.25;"/><text fill="#000000" font-family="sans-serif" font-size="16.25" lengthAdjust="spacing" textLength="0" x="441.25" y="1236.8689"/><text fill="#000000" font-family="sans-serif" font-size="16.25" lengthAdjust="spacing" textLength="0" x="441.25" y="1257.3083"/><text fill="#000000" font-family="sans-serif" font-size="16.25" lengthAdjust="spacing" textLength="75" x="401.25" y="1277.7478">«extends»</text><!--MD5=[94931db450b314fa6d2c1b0354bbec4a]
reverse link MoveOuvrier to Ouvrier--><path codeLine="132" d="M728.5625,1618.275 C719.55,1631.85 709.6125,1644.7625 698.75,1656.25 C670.525,1686.0875 629.925,1708.775 597.5375,1723.65 " fill="none" id="MoveOuvrier-backto-Ouvrier" style="stroke:#A80036;stroke-width:1.25;"/><polygon fill="none" points="721.4125,1613.2,741.975,1596.5125,736.3125,1622.3875,721.4125,1613.2" style="stroke:#A80036;stroke-width:1.25;"/><text fill="#000000" font-family="sans-serif" font-size="16.25" lengthAdjust="spacing" textLength="75" x="715" y="1651.8689">«extends»</text><!--MD5=[4dd316995cead153d64f897a2d940e20]
link Reine to Soldat--><path codeLine="133" d="M288.1199,986.2379 C288.1199,986.2379 269.0875,1117.725 251.25,1181.25 C234.4625,1241.025 208.65,1305.4 185.9875,1356.9 " fill="none" id="Reine-Soldat" style="stroke:#A80036;stroke-width:1.25;"/><polygon fill="#A80036" points="179.375,1371.75,188.5186,1363.5064,181.9172,1366.0404,179.3832,1359.4389,179.375,1371.75" style="stroke:#A80036;stroke-width:1.25;"/><line style="stroke:#A80036;stroke-width:1.25;" x1="181.9172" x2="185.9813" y1="1366.0404" y2="1356.9"/><polygon fill="#FFFFFF" points="289.95,971.35,284.0723,978.1839,288.1199,986.2379,293.9976,979.404,289.95,971.35" style="stroke:#A80036;stroke-width:1.25;"/><polygon fill="#000000" points="288.3397,1101.2452,294.8848,1091.3209,287.8015,1089.3692,288.3397,1101.2452" style="stroke:#000000;stroke-width:1.25;"/><text fill="#000000" font-family="sans-serif" font-size="16.25" lengthAdjust="spacing" textLength="122.5" x="301.25" y="1101.8689">donne naissance</text><!--MD5=[c0f094380114cccdef5d7294735e0f93]
link Reine to Ouvrier--><path codeLine="134" d="M352.9994,975.2929 C352.9994,975.2929 467.8875,954 513.75,1008.75 C556.0125,1059.2 550.5,1504.4875 546.725,1676.75 " fill="none" id="Reine-Ouvrier" style="stroke:#A80036;stroke-width:1.25;"/><polygon fill="#A80036" points="546.35,1693.5,551.6085,1682.3685,546.4944,1687.2517,541.6112,1682.1375,546.35,1693.5" style="stroke:#A80036;stroke-width:1.25;"/><line style="stroke:#A80036;stroke-width:1.25;" x1="546.4944" x2="546.7188" y1="1687.2517" y2="1677.2563"/><polygon fill="#FFFFFF" points="340.175,967.5125,343.9938,975.6775,352.9994,975.2929,349.1807,967.1279,340.175,967.5125" style="stroke:#A80036;stroke-width:1.25;"/><polygon fill="#000000" points="554.1638,1256.8692,554.695,1244.9929,547.6129,1246.9488,554.1638,1256.8692" style="stroke:#000000;stroke-width:1.25;"/><text fill="#000000" font-family="sans-serif" font-size="16.25" lengthAdjust="spacing" textLength="122.5" x="563.75" y="1257.4939">donne naissance</text><!--MD5=[35a2663716d3b66f4bacff2cac148b54]
link Ouvrier to Colonie--><path codeLine="136" d="M513.0125,1797.975 C495.975,1825.175 474.7375,1859.1125 455.9625,1889.075 " fill="none" id="Ouvrier-to-Colonie" style="stroke:#A80036;stroke-width:1.25;stroke-dasharray:7.0,7.0;"/><polygon fill="#A80036" points="452.5,1894.625,462.7192,1887.7598,455.8253,1889.3331,454.2521,1882.4392,452.5,1894.625" style="stroke:#A80036;stroke-width:1.25;"/><text fill="#000000" font-family="sans-serif" font-size="16.25" lengthAdjust="spacing" textLength="43.75" x="490" y="1853.1189">«use»</text><!--MD5=[e52f2e922251a5509e63d15f99df82e5]
link Reine to Graphe--><path codeLine="137" d="M270.5125,815.9 C257.2625,767.4625 246.9125,703.8125 261.25,648.75 C282.5,567.1 330.05,484.15 370.4,423.8 " fill="none" id="Reine-to-Graphe" style="stroke:#A80036;stroke-width:1.25;stroke-dasharray:7.0,7.0;"/><polygon fill="#A80036" points="374.0375,418.4,363.6213,424.9623,370.5583,423.5921,371.9286,430.5291,374.0375,418.4" style="stroke:#A80036;stroke-width:1.25;"/><text fill="#000000" font-family="sans-serif" font-size="16.25" lengthAdjust="spacing" textLength="43.75" x="301.25" y="583.1189">«use»</text><!--MD5=[233ebc6768b9b7a45833c04d62a107eb]
link Soldat to Colonie--><path codeLine="138" d="M184.7625,1544.725 C236.9,1641.425 321.0125,1797.4375 370.3625,1888.9625 " fill="none" id="Soldat-to-Colonie" style="stroke:#A80036;stroke-width:1.25;stroke-dasharray:7.0,7.0;"/><polygon fill="#A80036" points="373.55,1894.9,372.614,1882.6246,370.5847,1889.3982,363.8111,1887.369,373.55,1894.9" style="stroke:#A80036;stroke-width:1.25;"/><text fill="#000000" font-family="sans-serif" font-size="16.25" lengthAdjust="spacing" textLength="43.75" x="320" y="1752.4939">«use»</text><!--MD5=[d39f4700e995748a35ceafbeb07144cd]
link Ouvrier to Graphe--><path codeLine="139" d="M551.4125,1693.65 C565.1,1605.8875 605.0875,1425.05 711.25,1320 C744.625,1286.975 783.3375,1321.1375 810,1282.5 C826.0875,1259.175 823.2375,1243.8 810,1218.75 C796.175,1192.5875 771.2,1206.0125 755,1181.25 C712.2875,1115.9625 767.3625,1072.575 722.5,1008.75 C703.6,981.8625 677.475,998.275 658.75,971.25 C548.275,811.7875 657.975,720.4875 583.75,541.25 C564.9125,495.75 534.725,450.4 506.6625,413.7 " fill="none" id="Ouvrier-to-Graphe" style="stroke:#A80036;stroke-width:1.25;stroke-dasharray:7.0,7.0;"/><polygon fill="#A80036" points="502.5375,408.35,505.4586,420.3095,506.3585,413.2959,513.3721,414.1958,502.5375,408.35" style="stroke:#A80036;stroke-width:1.25;"/><text fill="#000000" font-family="sans-serif" font-size="16.25" lengthAdjust="spacing" textLength="43.75" x="660" y="900.6189">«use»</text><!--MD5=[4664a776a043a4736ec2c584d7c55df4]
link Soldat to Graphe--><path codeLine="140" d="M100.8375,1371.85 C65.475,1281.45 22.2375,1134.45 51.25,1008.75 C84.6,864.2125 129.175,840.4125 197.5,708.75 C220.2875,664.825 234.7375,657.9 251.25,611.25 C261.8,581.4625 250.5875,569.9875 263.75,541.25 C278.0625,510.0125 290.5875,507.7125 312.5,481.25 C330.4625,459.5625 350.025,436.225 368.2375,414.6375 " fill="none" id="Soldat-to-Graphe" style="stroke:#A80036;stroke-width:1.25;stroke-dasharray:7.0,7.0;"/><polygon fill="#A80036" points="372.35,409.775,361.2653,415.1315,368.3121,414.5455,368.8981,421.5922,372.35,409.775" style="stroke:#A80036;stroke-width:1.25;"/><text fill="#000000" font-family="sans-serif" font-size="16.25" lengthAdjust="spacing" textLength="43.75" x="198.75" y="750.6189">«use»</text><!--MD5=[b7d75b6e1196e1d97cb5a05a5c818ca2]
link FourmisMove to Noeud--><path codeLine="141" d="M670.775,1042.9625 C679.6,1021.325 688.725,995.5125 693.75,971.25 C739.75,748.875 731.3625,474 726.15,372.8625 " fill="none" id="FourmisMove-to-Noeud" style="stroke:#A80036;stroke-width:1.25;stroke-dasharray:7.0,7.0;"/><polygon fill="#A80036" points="725.8125,366.4625,721.3986,377.9551,726.1344,372.7042,731.3853,377.44,725.8125,366.4625" style="stroke:#A80036;stroke-width:1.25;"/><text fill="#000000" font-family="sans-serif" font-size="16.25" lengthAdjust="spacing" textLength="43.75" x="728.75" y="666.8689">«use»</text><!--MD5=[e61972ac41694a25c0fb70e5fd0acc3d]
link FourmisMove to Graphe--><path codeLine="142" d="M594.0875,1046.3125 C577.1875,1032.9125 557.9125,1019.1625 538.75,1008.75 C493.825,984.3375 466.4375,1007.1125 430,971.25 C328.925,871.7625 345.7875,810.9375 321.25,671.25 C319.525,661.4 317.5875,658.05 321.25,648.75 C329.6125,627.5375 344.975,631.0625 356.25,611.25 C389.1375,553.475 409.725,481.2375 421.95,424.85 " fill="none" id="FourmisMove-to-Graphe" style="stroke:#A80036;stroke-width:1.25;stroke-dasharray:7.0,7.0;"/><polygon fill="#A80036" points="423.325,418.4125,416.0927,428.3752,422.024,424.5256,425.8736,430.4569,423.325,418.4125" style="stroke:#A80036;stroke-width:1.25;"/><text fill="#000000" font-family="sans-serif" font-size="16.25" lengthAdjust="spacing" textLength="43.75" x="322.5" y="666.8689">«use»</text><!--MD5=[2edec7cd06deeec0b130714159c2f9ef]
link MoveOuvrier to Noeud--><path codeLine="143" d="M827.675,1319.7125 C829.625,1307.175 831.3,1294.6375 832.5,1282.5 C835.3,1254.3 833.7125,1247.0625 832.5,1218.75 C821.6625,964.725 818.375,900.6375 783.75,648.75 C770.0125,548.7875 745.725,432.4875 732.6625,372.8625 " fill="none" id="MoveOuvrier-to-Noeud" style="stroke:#A80036;stroke-width:1.25;stroke-dasharray:7.0,7.0;"/><polygon fill="#A80036" points="731.275,366.575,728.8345,378.6418,732.6308,372.6762,738.5964,376.4725,731.275,366.575" style="stroke:#A80036;stroke-width:1.25;"/><text fill="#000000" font-family="sans-serif" font-size="16.25" lengthAdjust="spacing" textLength="43.75" x="801.25" y="750.6189">«use»</text><!--MD5=[6e5c1ece1ce9c6a5e21a9106953624ba]
link MoveOuvrier to Graphe--><path codeLine="144" d="M825.275,1319.925 C828.525,1286.725 829.05,1251.3875 823.75,1218.75 C820.9375,1201.4125 816.45,1198.025 811.25,1181.25 C787.2625,1103.9625 653.7125,549.3625 610,481.25 C583.8875,440.5625 543.275,404.9 508.0125,378.775 " fill="none" id="MoveOuvrier-to-Graphe" style="stroke:#A80036;stroke-width:1.25;stroke-dasharray:7.0,7.0;"/><polygon fill="#A80036" points="502.85,374.9875,508.9603,385.6752,507.8883,378.6858,514.8777,377.6139,502.85,374.9875" style="stroke:#A80036;stroke-width:1.25;"/><text fill="#000000" font-family="sans-serif" font-size="16.25" lengthAdjust="spacing" textLength="43.75" x="705" y="750.6189">«use»</text><!--MD5=[7fd2ced444de389ab8e2ba2109bedf2c]
link AntFacadeHistorique to Soldat--><path codeLine="145" d="M148.3,1181.2625 C146.3875,1236.6 143.8875,1308.75 141.925,1365.3375 " fill="none" id="AntFacadeHistorique-to-Soldat" style="stroke:#A80036;stroke-width:1.25;stroke-dasharray:7.0,7.0;"/><polygon fill="#A80036" points="141.7,1371.8125,147.1141,1360.7558,141.932,1365.5668,137.121,1360.3847,141.7,1371.8125" style="stroke:#A80036;stroke-width:1.25;"/><text fill="#000000" font-family="sans-serif" font-size="16.25" lengthAdjust="spacing" textLength="43.75" x="147.5" y="1257.4939">«use»</text><!--MD5=[ba7a751fb838bb566afa0aeddf3235b1]
link AntFacadeHistorique to Ouvrier--><path codeLine="146" d="M188.4,1181.4125 C193.375,1193.85 198.2375,1206.5625 202.5,1218.75 C260.15,1383.4 205.4125,1456.625 310,1596.25 C355.1875,1656.5875 432.8,1698.4625 486.4,1721.925 " fill="none" id="AntFacadeHistorique-to-Ouvrier" style="stroke:#A80036;stroke-width:1.25;stroke-dasharray:7.0,7.0;"/><polygon fill="#A80036" points="492.1625,1724.425,483.8154,1715.3758,486.4243,1721.948,479.8521,1724.5569,492.1625,1724.425" style="stroke:#A80036;stroke-width:1.25;"/><text fill="#000000" font-family="sans-serif" font-size="16.25" lengthAdjust="spacing" textLength="43.75" x="311.25" y="1464.9939">«use»</text><!--MD5=[4d7ff2bb0a05fa37c66e8704389055ef]
@startuml
'https://plantuml.com/class-diagram

skinparam style strictuml
skinparam classAttributeIconSize 0
skinparam classFontStyle Bold
skinparam roundcorner 20
hide enum methods

package "Diagramme de Classe d'Analyse V2 " <<Folder>> {
  interface AntFacadeController <<interface>> #pink ##[bold]red {

  }

  class Graphe #lightcoral;line.bold {
      estObstacle
      estNourriture
      quantityFood
      quantityPheromone
      row
      column
      theNoeud
  }

  class Colonie #burlywood {
      numColonie
      evaporationParam
      foodParam
      pheromoneParam
      quantityFood
  }

  class Noeud #burlywood {
      coordonneeNoeud
  }

  class AntFacade #back:Wheat;line.bold {
      grid
      graphe
      theSoldiers
      theWorkers
      reine
      width
      height
      xColonie
      yColonie
      antHisto
  }

    class AntFacadeHistorique #back:Wheat;line.bold {
        grid
        width
        height
        durationPlay
        fLog
        fw
        graphe
    }

  interface Fourmis <<interface>> #lightgreen;line:green {
  }

  class Reine #lightblue;line:green {
      x
      y
      colonie
      graphe
      theSoldiers
      theWorkers
  }

  interface IFourmisMove <<interface>> #lightgreen;line:green {

    }

  abstract class FourmisMove #lightgreen;line:green {
     listNoeud
     random
     record
  }

    class Soldat #mediumpurple;line:darkviolet {
        nombreSoldat
        colonie
        x
        y
        g
        positionActuel
        numeroSoldat
    }

  abstract class MoveOuvrier #gold;line:goldenrod  {
       x
       y
       graphe
       positionActuel
       listNoeud
       listNoeudRetour
       aVisite
       etatRetour
       quantityFoodTaken
       colonie
       random
       record
       estObstacle
  }

   class Ouvrier #mediumpurple;line:darkviolet {
        nombreOuvrier
        colonie
        g
    }

}

    AntFacadeController <|.. AntFacade : <<implements>>
    AntFacade .right.|> Graphe : <<instantiate>>
    AntFacade ..|> Reine : <<instantiate>>
    AntFacade ..|> AntFacadeHistorique : <<instantiate>>

    Graphe *-right-> Noeud : > contient

    Reine *->  Colonie : > appartient
    Noeud *- -> Fourmis : > comporte

    Fourmis <|.. Reine : <<implements>>
    Fourmis <|.. IFourmisMove : <<extends>>

    IFourmisMove <|..FourmisMove : <<implements>>
    FourmisMove <|.. MoveOuvrier : \n\n<<extends>>
    FourmisMove <|.. Soldat : \n\n<<extends>>

    MoveOuvrier <|- - Ouvrier : <<extends>>
    Reine o- -> Soldat : > donne naissance
    Reine o- -> Ouvrier : > donne naissance

    Ouvrier ..> Colonie : <<use>>
    Reine ..> Graphe : <<use>>
    Soldat ..> Colonie : <<use>>
    Ouvrier ..> Graphe : <<use>>
    Soldat ..> Graphe : <<use>>
    FourmisMove ..> Noeud : <<use>>
    FourmisMove ..> Graphe : <<use>>
    MoveOuvrier ..> Noeud : <<use>>
    MoveOuvrier ..> Graphe : <<use>>
    AntFacadeHistorique ..> Soldat : <<use>>
    AntFacadeHistorique ..> Ouvrier : <<use>>



@enduml

@startuml

skinparam style strictuml
skinparam classAttributeIconSize 0
skinparam classFontStyle Bold
skinparam roundcorner 20
hide enum methods

package "Diagramme de Classe d'Analyse V2 " <<Folder>> {
  interface AntFacadeController <<interface>> #pink ##[bold]red {

  }

  class Graphe #lightcoral;line.bold {
      estObstacle
      estNourriture
      quantityFood
      quantityPheromone
      row
      column
      theNoeud
  }

  class Colonie #burlywood {
      numColonie
      evaporationParam
      foodParam
      pheromoneParam
      quantityFood
  }

  class Noeud #burlywood {
      coordonneeNoeud
  }

  class AntFacade #back:Wheat;line.bold {
      grid
      graphe
      theSoldiers
      theWorkers
      reine
      width
      height
      xColonie
      yColonie
      antHisto
  }

    class AntFacadeHistorique #back:Wheat;line.bold {
        grid
        width
        height
        durationPlay
        fLog
        fw
        graphe
    }

  interface Fourmis <<interface>> #lightgreen;line:green {
  }

  class Reine #lightblue;line:green {
      x
      y
      colonie
      graphe
      theSoldiers
      theWorkers
  }

  interface IFourmisMove <<interface>> #lightgreen;line:green {

    }

  abstract class FourmisMove #lightgreen;line:green {
     listNoeud
     random
     record
  }

    class Soldat #mediumpurple;line:darkviolet {
        nombreSoldat
        colonie
        x
        y
        g
        positionActuel
        numeroSoldat
    }

  abstract class MoveOuvrier #gold;line:goldenrod  {
       x
       y
       graphe
       positionActuel
       listNoeud
       listNoeudRetour
       aVisite
       etatRetour
       quantityFoodTaken
       colonie
       random
       record
       estObstacle
  }

   class Ouvrier #mediumpurple;line:darkviolet {
        nombreOuvrier
        colonie
        g
    }

}

    AntFacadeController <|.. AntFacade : <<implements>>
    AntFacade .right.|> Graphe : <<instantiate>>
    AntFacade ..|> Reine : <<instantiate>>
    AntFacade ..|> AntFacadeHistorique : <<instantiate>>

    Graphe *-right-> Noeud : > contient

    Reine *->  Colonie : > appartient
    Noeud *- -> Fourmis : > comporte

    Fourmis <|.. Reine : <<implements>>
    Fourmis <|.. IFourmisMove : <<extends>>

    IFourmisMove <|..FourmisMove : <<implements>>
    FourmisMove <|.. MoveOuvrier : \n\n<<extends>>
    FourmisMove <|.. Soldat : \n\n<<extends>>

    MoveOuvrier <|- - Ouvrier : <<extends>>
    Reine o- -> Soldat : > donne naissance
    Reine o- -> Ouvrier : > donne naissance

    Ouvrier ..> Colonie : <<use>>
    Reine ..> Graphe : <<use>>
    Soldat ..> Colonie : <<use>>
    Ouvrier ..> Graphe : <<use>>
    Soldat ..> Graphe : <<use>>
    FourmisMove ..> Noeud : <<use>>
    FourmisMove ..> Graphe : <<use>>
    MoveOuvrier ..> Noeud : <<use>>
    MoveOuvrier ..> Graphe : <<use>>
    AntFacadeHistorique ..> Soldat : <<use>>
    AntFacadeHistorique ..> Ouvrier : <<use>>



@enduml

PlantUML version 1.2021.5(Sun Apr 25 13:20:28 CEST 2021)
(GPL source distribution)
Java Runtime: OpenJDK Runtime Environment
JVM: Dynamic Code Evolution 64-Bit Server VM
Default Encoding: Cp1252
Language: fr
Country: FR
--></g></svg>